<?xml version="1.0" encoding="UTF-8"?>
<!-- Generator: Adobe Illustrator 25.2.1, SVG Export Plug-In . SVG Version: 6.00 Build 0)  -->
<svg xmlns="http://www.w3.org/2000/svg" xmlns:xlink="http://www.w3.org/1999/xlink" version="1.1" id="Capa_1" x="0px" y="0px" viewBox="0 0 512 512" style="enable-background:new 0 0 512 512;" xml:space="preserve" width="512" height="512">
<g>
	<g>
		<g>
			<g>
				<path style="fill-rule:evenodd;clip-rule:evenodd;fill:#F4BE53;" d="M211.543,87.091c-21.779,4.576-38.901,13.482-53.124,27.67      c-13.648,13.616-25.533,32.898-26.166,60.877c-0.671,29.681,7.233,52.641,15.064,74.544      c5.688,15.899,11.674,31.781,16.915,48.831c1.733,5.628,4.193,11.07,5.287,16.603c0.736,3.724,1.057,7.611,1.851,11.394      c5.179,24.706,7.594,53.96,9.517,83.011c8.193,0,16.386,0,24.581,0c2.72-52.617,1.856-106.625,3.698-160.488      c0.233-6.831,0.017-13.608,0.266-20.508c0.705-19.855,0.311-40.077,1.054-60.225c0.251-6.787,0.154-13.627,0.265-20.509      c0.32-19.86,0.458-40.199,1.058-60.224C211.831,87.606,211.852,87.146,211.543,87.091z"/>
				<path style="fill-rule:evenodd;clip-rule:evenodd;fill:#DBA13A;" d="M264.639,410.614c53.383,1.324,106.613-1.643,158.09-0.325      c0.974-92.065,4.036-185.184,5.296-276.704c0.181-13.12,2.632-27.909,1.659-40.692c-28.121-3.601-58.138-3.278-87.407-5.209      c-9.716-0.642-19.382-0.822-29.31-1.301c-9.732-0.472-23.597-0.146-34.3,0.325c-11.06,0.485-21.79,1.114-31.179,2.606      c-30.569,4.853-51.645,16.206-64.546,38.085c-4.312,7.314-7.961,16.26-8.73,26.044c-0.91,11.571,1.186,21.835,3.741,31.251      c12.036,44.318,44.384,69.642,64.544,108.403c7.917,15.223,13.204,33.941,15.905,53.711      C261.261,367.778,262.008,389.648,264.639,410.614z"/>
				<path style="fill-rule:evenodd;clip-rule:evenodd;fill:#F4BE53;" d="M429.684,92.892c-22.888,4.575-40.881,13.48-55.827,27.671      c-14.344,13.617-26.834,32.896-27.497,60.873c-0.705,29.681,7.597,52.643,15.829,74.547      c5.978,15.899,12.266,31.78,17.778,48.831c1.82,5.625,4.406,11.067,5.555,16.601c0.773,3.725,1.109,7.61,1.945,11.398      c5.442,24.702,7.975,53.959,10,83.008c8.608,0,17.218,0,25.83,0c2.858-52.617,1.953-106.624,3.886-160.487      c0.247-6.834,0.021-13.61,0.279-20.509c0.745-19.854,0.33-40.077,1.11-60.225c0.263-6.787,0.163-13.626,0.278-20.507      c0.335-19.861,0.484-40.199,1.11-60.226C429.985,93.406,430.008,92.946,429.684,92.892z"/>
			</g>
			<g>
				<g>
					<path style="fill-rule:evenodd;clip-rule:evenodd;fill:#754E27;" d="M417.264,418.752c-14.759,0-29.516,0-44.275,0       c-3.053,4.881-4.599,13.502-3.255,20.185c3.805,18.919,25.647,25.813,32.554,41.994c-1.613-0.245-4.556,0.172-5.859,0.652       c-3.986,1.463-8.826,7.002-7.488,14.321c1.916,10.465,20.691,15.38,27.018,4.558c2.385-4.075,2.62-11.98,2.932-18.555       c0.981-20.8-0.328-42.147-0.978-62.178C417.93,419.169,417.671,418.885,417.264,418.752z"/>
					<path style="fill-rule:evenodd;clip-rule:evenodd;fill:#4F2F12;" d="M157.11,415.616c-14.757,0-29.515,0-44.271,0       c-3.052,4.882-4.601,13.502-3.256,20.185c3.808,18.916,25.643,25.812,32.553,41.994c-1.61-0.244-4.556,0.173-5.859,0.648       c-3.986,1.465-8.827,7.006-7.486,14.325c1.914,10.464,20.691,15.381,27.017,4.558c2.384-4.074,2.622-11.98,2.932-18.557       c0.979-20.799-0.328-42.143-0.979-62.177C157.779,416.034,157.518,415.749,157.11,415.616z"/>
					<path style="fill-rule:evenodd;clip-rule:evenodd;fill:#754E27;" d="M221.026,415.616c-14.758,0-29.515,0-44.274,0       c-3.055,4.882-4.601,13.502-3.256,20.185c3.805,18.916,25.645,25.812,32.555,41.994c-1.613-0.244-4.558,0.173-5.859,0.648       c-3.988,1.465-8.827,7.006-7.488,14.325c1.915,10.464,20.691,15.381,27.019,4.558c2.382-4.074,2.619-11.98,2.929-18.557       c0.985-20.799-0.328-42.143-0.975-62.177C221.691,416.034,221.432,415.749,221.026,415.616z"/>
					<path style="fill-rule:evenodd;clip-rule:evenodd;fill:#4F2F12;" d="M355.601,415.616c-14.757,0-29.515,0-44.27,0       c-3.056,4.882-4.601,13.502-3.259,20.185c3.808,18.916,25.645,25.812,32.555,41.994c-1.613-0.244-4.558,0.173-5.858,0.648       c-3.99,1.465-8.828,7.006-7.487,14.325c1.914,10.464,20.688,15.381,27.018,4.558c2.38-4.074,2.618-11.98,2.929-18.557       c0.982-20.799-0.326-42.143-0.977-62.177C356.268,416.034,356.011,415.749,355.601,415.616z"/>
				</g>
				<g>
					<path style="fill-rule:evenodd;clip-rule:evenodd;fill:#F9C569;" d="M98.566,359.503c25.511-0.581,53.54-1.934,80.733-0.648       c41.281,1.951,81.916-1.639,123.049-0.653c13.458,0.324,26.932,0.713,40.369,1.301c13.34,0.59,26.721,1.629,40.041,1.629       c13.433,0,26.952,1.187,40.368-0.325c-0.139-3.822-3.538-6.23-5.861-8.789c-6.704-7.382-14.405-14.107-22.462-20.509       c-10.621-8.442-21.561-17.156-33.855-23.765c-12.423-6.68-26.233-12.584-40.695-16.928       c-15.294-4.594-32.316-7.624-50.131-8.463c-20.646-0.975-40.413,0.936-58.268,4.231c-35.389,6.53-63.727,19.296-85.616,39.39       c-10.312,9.463-18.266,20.269-27.022,31.577C98.985,357.848,96.942,358.771,98.566,359.503z"/>
					<g>
						<path style="fill-rule:evenodd;clip-rule:evenodd;fill:#DBA13A;" d="M234.727,351.694c-10.585-0.392-24.054,0.35-36.691,0.648        c-23.031,0.548-49.566,0.069-73.052,0.978c-10.871,0.419-26.881,0.659-29.481,8.14c-1.832,5.271,1.047,10.041,1.966,13.019        c2.53,8.183,4.599,15.568,3.604,27.022c-0.429,4.947-0.525,10.459,1.638,13.021c4.687,5.551,26.503,3.906,37.344,3.906        c41.005-0.002,80.681-0.766,121.861,0.977c26.377,1.113,52.46,1.098,80.259,1.952c12.626,0.39,24.605,1.978,39.313,1.627        c5.387-0.128,12.645,0,19.981,0c7.508,0,15.039,0.657,18.02-1.627c6.1-4.677,1.902-18.739,2.29-27.67        c0.1-2.26,0.38-3.996,0.986-6.838c1.696-7.965,8.72-17.902,3.929-25.066c-2.447-3.653-12.178-3.943-20.635-4.554        c-23.929-1.732-49.301-1.277-73.709-1.957c-16.749-0.462-32.56-1.243-48.484-1.951        C267.843,352.611,251.688,352.318,234.727,351.694z"/>
						<path style="fill-rule:evenodd;clip-rule:evenodd;fill:#C48A2C;" d="M110.899,389.78c0.789,2.595,4.163,2.082,6.223,2.278        c17.245,1.63,37.82,0.764,57.001,1.629c19.319,0.871,38.481,0.487,57.325,1.628c2.108,0.127,5.041,0.994,6.88-0.652        c-0.121-2.484-3.206-2.133-4.583-2.279c-29.222-3.108-62.832-4.433-93.691-5.859c-3.862-0.18-11.139-0.284-17.034,0        C118.131,386.761,112.189,386.583,110.899,389.78z"/>
						<path style="fill-rule:evenodd;clip-rule:evenodd;fill:#C48A2C;" d="M319.244,390.105c0.228,3.432,5.781,2.795,9.172,2.93        c20.778,0.824,40.788,1.735,61.914,1.954c3.45,0.037,7.74,0.051,12.778,0c3.12-0.034,10.293,0.355,9.501-3.256        c-0.419-1.889-5.99-2.307-8.518-2.604c-10.565-1.244-21.774-0.72-32.107-1.953c-8.445-1.012-18.626-0.075-27.515,0.324        c-7.082,0.32-13.616,0.387-19.982,0.979C322.68,388.645,320.062,388.061,319.244,390.105z"/>
					</g>
				</g>
			</g>
		</g>
		<g>
			<g>
				<path style="fill-rule:evenodd;clip-rule:evenodd;fill:#FFFFFF;" d="M380.589,128.516c-2.245-1.425-4.204,2.88-5.553,6.014      c-1.339,3.106-2.41,6.537-0.959,7.362c2.293,1.3,3.964-3.101,5.105-5.527C380.138,134.344,382.94,130.015,380.589,128.516z"/>
				<path style="fill-rule:evenodd;clip-rule:evenodd;fill:#FFFFFF;" d="M367.474,141.354c-2.764-1.689-5.481,6.899-3.108,7.854      C366.815,150.198,369.608,142.653,367.474,141.354z"/>
				<path style="fill-rule:evenodd;clip-rule:evenodd;fill:#FFFFFF;" d="M371.433,148.876c-2.246,0.507-4.304,4.827-4.672,8.179      c-0.13,1.192,0.006,2.536,1.278,2.843c1.961,0.47,2.756-2.957,3.704-5.276C372.72,152.225,374.392,149.772,371.433,148.876z"/>
			</g>
			<g>
				<path style="fill-rule:evenodd;clip-rule:evenodd;fill:#C48A2C;" d="M155.288,135.118c-2.245-1.426-4.206,2.881-5.553,6.014      c-1.339,3.107-2.409,6.539-0.959,7.363c2.293,1.3,3.965-3.1,5.105-5.529C154.837,140.944,157.64,136.617,155.288,135.118z"/>
				<path style="fill-rule:evenodd;clip-rule:evenodd;fill:#C48A2C;" d="M142.173,147.956c-2.766-1.688-5.482,6.898-3.107,7.854      C141.515,156.799,144.308,149.256,142.173,147.956z"/>
				<path style="fill-rule:evenodd;clip-rule:evenodd;fill:#C48A2C;" d="M146.131,155.477c-2.246,0.505-4.305,4.828-4.674,8.181      c-0.128,1.192,0.007,2.531,1.281,2.842c1.958,0.471,2.754-2.957,3.7-5.275C147.42,158.828,149.093,156.374,146.131,155.477z"/>
			</g>
			<g>
				<path style="fill-rule:evenodd;clip-rule:evenodd;fill:#C48A2C;" d="M396.525,321.816c-2.802,4.313,10.578,6.629,10.34,1.659      c-0.069-1.539-1.746-1.436-3.493-1.841C400.799,321.03,397.896,319.708,396.525,321.816z"/>
				<path style="fill-rule:evenodd;clip-rule:evenodd;fill:#C48A2C;" d="M410.474,331.8c-1.984,3.147,6.8,5.475,7.582,2.81      C418.673,332.492,411.892,329.55,410.474,331.8z"/>
			</g>
			<g>
				<path style="fill-rule:evenodd;clip-rule:evenodd;fill:#F4BE53;" d="M358.61,97.171c-1.384,2.612-4.522,2.14-6.594,2.234      c-2.113,0.094-5.035,0.971-6.756-1.194c0.002-0.793,0.37-1.796,1.86-2.346C350.199,94.721,357.111,94.604,358.61,97.171z"/>
				<path style="fill-rule:evenodd;clip-rule:evenodd;fill:#F4BE53;" d="M369.907,98.657c-0.453,1.507-2.795,1.821-4.686,1.974      c-1.762,0.144-4.625,0.648-5.041-1.274C361.484,97.302,368.473,96.398,369.907,98.657z"/>
			</g>
		</g>
	</g>
	<g>
		<g>
			<g>
				<g>
					<g>
						<path style="fill-rule:evenodd;clip-rule:evenodd;fill:#EFAC8B;" d="M185.384,349.616        c5.532-11.512,10.006-26.196,16.37-35.754c10.992,4.047,20.285,8.945,31.326,14.312c4.505,2.192,9.889,4.577,15.287,7.735        c4.683,2.739,11.822,6.924,13.986,11.009c2.259,4.266,2.977,10.615,3.767,16.172c1.455,10.232,2.688,20.138,1.764,30.242        c-0.389,4.224-1.356,10.971-4.526,11.612c-4.607,0.926-8.066-9.24-10.318-14.116c-3.828-8.283-7.12-15.086-12.674-18.94        c-3.862-2.681-8.894-4.243-13.609-6.097C212.887,360.34,198.668,355.539,185.384,349.616z"/>
						<path style="fill:#ED500A;" d="M262.353,346.918c-2.164-4.085-9.303-8.269-13.986-11.009        c-4.935-2.885-9.848-5.125-14.094-7.162l-19.519,32.468c4.01,1.5,8.021,3.012,12.004,4.575        c4.715,1.854,9.747,3.416,13.609,6.097c5.554,3.854,8.846,10.657,12.674,18.94c2.252,4.876,5.711,15.042,10.318,14.116        c3.17-0.641,4.137-7.388,4.526-11.612c0.924-10.104-0.309-20.01-1.764-30.242C265.33,357.533,264.612,351.184,262.353,346.918        z"/>
					</g>
					<g>
						<path style="fill-rule:evenodd;clip-rule:evenodd;fill:#C6360A;" d="M256.537,368.444c1.096-0.541,0.973-1.758,0.907-2.906        c-0.055-0.878-0.216-2.009-0.971-2.541c-1.054-0.733-2.048,0.76-2.179,1.855c-0.042,0.356,0.058,1.267,0.137,1.746        C254.613,367.616,255.339,369.04,256.537,368.444z"/>
						<path style="fill-rule:evenodd;clip-rule:evenodd;fill:#C6360A;" d="M260.31,359.439c1.392-0.773,1.182-2.284,0.879-3.545        c-0.392-1.634-1.254-3.778-2.019-5.541c-0.952-2.173-3.419-5.185-5.435-3.468c-2.123,1.798,0.552,6.537,1.839,9.009        C256.521,357.699,258.315,360.547,260.31,359.439z"/>
					</g>
				</g>
				<g>
					<g>
						<path style="fill-rule:evenodd;clip-rule:evenodd;fill:#EFAC8B;" d="M308.665,441.687        c-7.802-10.116-15.228-23.549-23.438-31.579c-9.912,6.246-17.986,12.965-27.671,20.511c-3.95,3.078-8.719,6.528-13.348,10.739        c-4.009,3.654-10.125,9.23-11.392,13.674c-1.324,4.645-0.708,11.003-0.326,16.602c0.703,10.312,1.551,20.256,4.557,29.95        c1.256,4.049,3.604,10.448,6.837,10.415c4.701-0.049,5.973-10.714,7.161-15.949c2.022-8.898,3.832-16.235,8.463-21.162        c3.221-3.423,7.816-5.995,12.046-8.788C283.99,457.887,296.902,450.238,308.665,441.687z"/>
						<path style="fill:#ED500A;" d="M232.816,455.033c1.267-4.444,7.383-10.02,11.392-13.674c4.228-3.847,8.568-7.057,12.304-9.932        l25.835,27.704c-3.611,2.302-7.222,4.613-10.792,6.971c-4.23,2.793-8.825,5.364-12.046,8.788        c-4.631,4.927-6.441,12.265-8.463,21.162c-1.188,5.235-2.46,15.9-7.161,15.949c-3.233,0.033-5.581-6.366-6.837-10.415        c-3.006-9.694-3.854-19.638-4.557-29.95C232.108,466.036,231.492,459.678,232.816,455.033z"/>
					</g>
					<g>
						<path style="fill-rule:evenodd;clip-rule:evenodd;fill:#C6360A;" d="M239.102,475.45c1.094-0.54,0.974-1.759,0.909-2.903        c-0.054-0.878-0.215-2.01-0.97-2.543c-1.057-0.733-2.051,0.761-2.179,1.854c-0.042,0.356,0.057,1.267,0.136,1.746        C237.18,474.621,237.907,476.049,239.102,475.45z"/>
						<path style="fill-rule:evenodd;clip-rule:evenodd;fill:#C6360A;" d="M242.876,466.445c1.391-0.772,1.184-2.284,0.882-3.543        c-0.395-1.636-1.256-3.775-2.021-5.542c-0.949-2.172-3.416-5.184-5.435-3.47c-2.12,1.801,0.548,6.537,1.84,9.012        C239.088,464.705,240.877,467.556,242.876,466.445z"/>
					</g>
				</g>
				<g>
					<path style="fill-rule:evenodd;clip-rule:evenodd;fill:#687C15;" d="M326.295,234.259c-28.234,4.756-62.914,5.781-92.777,1.954       c-4.112-0.528-8.625-1.683-12.371-1.629c-2.798,0.04-6.091,1.242-9.442,1.953c-33.265,7.081-66.316,14.885-94.728,27.344       c-10.399,4.561-20.825,10.087-27.018,17.253c-5.719,6.617-10.968,19.154-5.859,29.3c3.704,7.358,13.018,13.175,21.486,16.928       c9.214,4.087,18.983,7.111,27.995,10.092c19.567,6.477,37.938,12.536,57.619,18.556c1.521-1.088,1.991-2.955,2.931-4.559       c6.096-10.431,12.542-22.264,16.6-35.158c-2.24-2.59-5.688-3.821-8.79-5.535c-2.993-1.653-6.197-3.18-9.115-4.883       c25.95-5.303,51.665-10.836,74.223-19.529c1.844,1.068,2.712,3.202,3.906,4.882c8.202,11.508,17.258,23.693,25.719,35.485       c9.748,13.585,19.32,27.343,29.622,40.364c-19.278,12.08-34.714,28.005-49.479,44.601       c11.839,16.586,25.368,31.488,40.691,44.595c15.631-13.504,31.423-26.787,45.573-42.644       c13.171-14.757,27.804-33.109,23.764-62.178c-3.527-25.397-13.598-45.095-24.416-63.804       c-10.741-18.582-22.435-36.151-35.156-52.737C327.034,234.607,326.682,234.418,326.295,234.259z"/>
					<g>
						<path style="fill:#525E0A;" d="M206.705,302.994c-4.608,0.979-9.24,1.936-13.88,2.882c0.237,0.139,0.484,0.269,0.722,0.403        c-20.633-6.398-39.72-14.342-60.545-20.545C160.751,288.31,184.486,294.896,206.705,302.994z"/>
						<path style="fill:#525E0A;" d="M345.249,355.555c-6.544,3.698-12.798,7.87-19.252,11.717c0.102-0.063,0.198-0.131,0.299-0.194        c-1.047-1.323-2.061-2.682-3.091-4.021c6.888-2.951,13.887-5.726,21.411-7.65        C344.695,355.088,345.264,355.137,345.249,355.555z"/>
						<g>
							<path style="fill-rule:evenodd;clip-rule:evenodd;fill:#525E0A;" d="M282.401,265.637c-1.364,0.488-1.565,2.161-1.682,3.52         c-0.169,2.041,0.164,4.667,0.644,6.93c0.283,1.295,0.31,2.579,0.727,3.567c0.729,1.733,2.08,2.601,3.341,1.876         c0.99-0.567,1.197-2.073,1.132-3.486c-0.102-2.262-0.572-5.425-0.953-7.792C285.304,268.349,284.754,264.799,282.401,265.637         z"/>
							<path style="fill-rule:evenodd;clip-rule:evenodd;fill:#525E0A;" d="M275.985,278.596c-1.806,0.727-1.027,3.229-0.302,5.106         c0.207,0.557,0.514,1.055,0.755,1.65c0.613,1.509,0.649,3.901,2.37,4.137c0.495,0.077,1.037-0.172,1.299-0.364         c1.313-0.946,0.413-3.191-0.172-5.115c-0.262-0.853-0.543-1.763-0.93-2.78C278.386,279.607,277.53,277.98,275.985,278.596z"/>
							<path style="fill-rule:evenodd;clip-rule:evenodd;fill:#525E0A;" d="M287.237,290.639c-2.563,0.834-0.167,4.972,0.708,7.369         c0.648,1.781,1.96,4.36,3.582,3.451c1.457-0.831,0.41-3.3-0.248-5.079c-0.331-0.892-0.651-1.896-0.998-2.738         C289.667,292.184,288.683,290.17,287.237,290.639z"/>
						</g>
						<g>
							<path style="fill-rule:evenodd;clip-rule:evenodd;fill:#FFFFFF;" d="M374.048,379.297c1.168-0.358,1.242-1.58,1.36-2.72         c0.086-0.875,0.107-2.019-0.552-2.663c-0.928-0.893-2.146,0.423-2.448,1.483c-0.095,0.343-0.144,1.258-0.144,1.744         C372.284,378.174,372.772,379.695,374.048,379.297z"/>
							<path style="fill-rule:evenodd;clip-rule:evenodd;fill:#FFFFFF;" d="M379.21,371.012c1.495-0.546,1.532-2.069,1.433-3.358         c-0.129-1.681-0.637-3.93-1.112-5.796c-0.59-2.296-2.547-5.662-4.812-4.291c-2.381,1.439-0.498,6.542,0.381,9.189         C375.746,368.689,377.061,371.787,379.21,371.012z"/>
						</g>
						<g>
							<path style="fill-rule:evenodd;clip-rule:evenodd;fill:#FFFFFF;" d="M89.255,298.149c-0.603,1.081,0.21,2.269,0.902,3.207         c1.04,1.406,2.731,2.904,4.318,4.087c0.911,0.673,1.648,1.482,2.474,1.884c1.447,0.702,2.798,0.501,3.203-0.678         c0.317-0.922-0.399-2.004-1.238-2.879c-1.34-1.394-3.423-3.16-5.002-4.465C92.646,298.255,90.293,296.284,89.255,298.149z"/>
							<path style="fill-rule:evenodd;clip-rule:evenodd;fill:#FFFFFF;" d="M92.431,310.086c-0.748,1.483,1.161,2.654,2.685,3.453         c0.445,0.234,0.922,0.385,1.414,0.632c1.242,0.622,2.612,2.139,3.848,1.323c0.364-0.231,0.57-0.698,0.634-0.967         c0.308-1.349-1.535-2.279-2.993-3.188c-0.648-0.402-1.343-0.827-2.164-1.261C94.543,309.384,93.078,308.819,92.431,310.086z"/>
							<path style="fill-rule:evenodd;clip-rule:evenodd;fill:#FFFFFF;" d="M106.441,311.481c-1.173,1.979,2.695,3.288,4.603,4.337         c1.423,0.778,3.72,1.696,4.245,0.198c0.467-1.354-1.593-2.351-3.018-3.124c-0.718-0.385-1.488-0.851-2.185-1.196         C108.875,311.106,107.104,310.365,106.441,311.481z"/>
						</g>
					</g>
				</g>
			</g>
			<g>
				<path style="fill-rule:evenodd;clip-rule:evenodd;fill:#4F2F12;" d="M201.826,127.791c0.113,4.075-0.493,7.627-1.378,10.96      c12.335,1.073,24.63,2.461,36.883,4.161c-0.769-31.692,35.071-92.343-1.662-98.615l-20.077-1.206      c-1.942,4.982-4.312,9.415-6.922,13.641c-4.073,6.633-9.12,12.459-12.097,19.937c-3.388,8.5-3.453,18.683-1.346,27.188      C197.159,111.714,201.586,118.824,201.826,127.791z"/>
				<g>
					<g>
						<path style="fill-rule:evenodd;clip-rule:evenodd;fill:#5C548E;" d="M214.311,235.887        c33.329,5.786,79.467,8.275,112.961,0.978c-2.876-10.427-5.788-21.304-7.162-33.532        c-3.981-35.451,7.124-86.715-12.043-109.378c-6.85-8.098-20.859-12.943-35.486-14c-4.864-0.35-10.626,0.758-15.947,1.63        c-5.011,0.821-9.999,1.688-14.326,2.931c-11.462,3.289-21.291,10.603-26.366,18.882c-10.271,16.75-6.452,42.436-3.257,64.129        c1.569,10.654,3.678,21.954,3.905,33.528C216.826,212.909,215.62,224.671,214.311,235.887z"/>
						<g>
							<path style="fill-rule:evenodd;clip-rule:evenodd;fill:#FFFFFF;" d="M220.808,109.091c-0.447-0.737,0.087-1.419,0.558-2.08         c0.367-0.502,0.891-1.116,1.543-1.148c0.909-0.038,0.935,1.23,0.6,1.933c-0.11,0.228-0.517,0.734-0.746,0.991         C222.272,109.323,221.296,109.898,220.808,109.091z"/>
							<path style="fill-rule:evenodd;clip-rule:evenodd;fill:#FFFFFF;" d="M221.968,102.286c-0.538-0.988,0.161-1.813,0.816-2.448         c0.857-0.828,2.183-1.781,3.307-2.542c1.391-0.939,4.005-1.801,4.558-0.012c0.584,1.877-2.805,3.693-4.513,4.678         C224.888,102.682,222.742,103.704,221.968,102.286z"/>
						</g>
					</g>
					<g>
						<path style="fill-rule:evenodd;clip-rule:evenodd;fill:#DB8C6A;" d="M259.761,251.171c1.275,1.169,6.276,4.269,8.033,6.495        c0.684,0.864,1.237,2.084,0.621,2.844c-1.298,1.607-5.017-1.195-6.45-1.992c-2.474-1.38-4.285-2.189-6.364-3.432        c1.28,1.54,6.14,4.516,8.447,7.138c0.957,1.095,1.861,2.531,1.027,3.477c-1.057,1.205-4.376-0.751-5.512-1.37        c-5.468-2.989-11.593-6.284-16.408-7.778c-5.531-1.714-10.548-2.448-16.227-2.315c-1.373,0.032-4.296,0.678-5.343-0.208        c-0.492-0.42-0.933-2.064-1.004-2.703c-0.238-2.19,0.276-4.809,0.768-8.098c0.189-1.258,0.319-2.514,0.774-4.062        c0.365-1.256,0.757-3.459,1.169-3.945c0.636-0.766,2.98-1.207,4.374-1.45c4.07-0.715,9.845-1.256,13.221-1.753        c2.929-0.428,6.001-0.88,8.811-1.337c2.662-0.432,11.385-1.905,12.353,1.444c0.795,2.755-7.823,3.171-9.819,4.198        c3.779,0.839,9.656,3.164,14.947,6.912c1.389,0.986,4.408,2.91,3.79,4.299c-0.842,1.904-3.303,0.461-4.553,0.027        c-1.743-0.608-3.087-0.884-4.482-1.671c1.665,1.689,6.225,4.363,7.905,6.631c0.548,0.74,0.929,1.844,0.475,2.46        c-1.06,1.412-3.302-0.296-4.984-1.133c-2.298-1.145-3.864-1.728-5.429-2.549C259.857,251.258,259.809,251.213,259.761,251.171        z"/>
						<g>
							<path style="fill-rule:evenodd;clip-rule:evenodd;fill:#423E77;" d="M216.559,102.427         c-19.182,19.73-33.923,56.607-45.798,84.343c-1.915,4.474-4.336,9.247-6.183,14.324c-2.526,6.932-5.095,13.86-4.231,23.111         c1.648,17.69,19.385,24.735,35.482,28.65c13.597,3.303,27.802,5.288,41.669,7.812c3.511-9.728,6.875-19.6,9.44-30.275         c-15.411-3.469-28.205-9.556-43.945-12.696c3.003-6.934,6.734-15.103,9.764-22.787c1.022-2.597,2.543-5.498,2.928-7.814         c0.993-5.911,1.323-13.285-0.322-19.858C209.26,142.912,205.917,129.887,216.559,102.427z"/>
							<path style="fill-rule:evenodd;clip-rule:evenodd;fill:#2A2A5E;" d="M183.061,207.241c6.768,2.53,15.494,5.869,23.438,8.788         c3.596,1.322,7.62,3.967,10.09,1.301c-0.007-3.608-3.981-3.806-6.511-4.558C202.159,210.428,192.441,208.012,183.061,207.241         z"/>
							<g>
								<path style="fill-rule:evenodd;clip-rule:evenodd;fill:#2A2A5E;" d="M203.568,151.266c-1.207,0.274-1.547,1.671-1.784,2.813          c-0.352,1.714-0.338,3.973-0.159,5.941c0.107,1.13-0.002,2.217,0.252,3.102c0.444,1.545,1.494,2.416,2.643,1.932          c0.897-0.379,1.225-1.637,1.316-2.844c0.145-1.926,0.067-4.659-0.014-6.706C205.755,153.861,205.65,150.793,203.568,151.266          z"/>
								<path style="fill-rule:evenodd;clip-rule:evenodd;fill:#2A2A5E;" d="M196.806,161.603c-1.603,0.433-1.201,2.635-0.778,4.301          c0.123,0.492,0.328,0.946,0.471,1.476c0.368,1.339,0.155,3.371,1.588,3.749c0.413,0.116,0.9-0.042,1.14-0.175          c1.212-0.671,0.674-2.664,0.379-4.356c-0.137-0.752-0.284-1.55-0.508-2.453          C198.738,162.707,198.179,161.237,196.806,161.603z"/>
								<path style="fill-rule:evenodd;clip-rule:evenodd;fill:#2A2A5E;" d="M205.122,172.963c-2.257,0.447-0.648,4.2-0.155,6.323          c0.371,1.577,1.22,3.9,2.688,3.291c1.322-0.557,0.684-2.757,0.308-4.331c-0.193-0.792-0.359-1.677-0.569-2.428          C207.025,174.523,206.394,172.713,205.122,172.963z"/>
							</g>
						</g>
					</g>
				</g>
				<g>
					<g>
						<g>
							<path style="fill-rule:evenodd;clip-rule:evenodd;fill:#ED500A;" d="M352.027,225.6c0.753-0.946-0.24-2-0.792-2.37         c1.054-0.354,2.258-0.562,2.636-1.584c0.107-1.334-0.868-1.587-1.582-2.108c0.628-0.464,1.801-1.368,1.056-2.373         c1.598-0.249,4.029-0.412,4.318-1.681c0.175-0.79-0.502-1.408-1.156-1.744c1.298,0.067,2.174-0.56,2.369-1.318         c0.206-0.999-1.293-1.675-2.105-1.841c0.664-0.382,1.451-1.079,1.232-2.084c-0.457-2.088-5.954-2.651-9.399-3.188         c-6.866-1.066-14.004-2.167-21.082-3.69c-3.313-0.711-7.145-1.464-9.487-2.636c-2.003-1.002-4.145-3.41-6.326-5.269         c-6.171-5.269-12.787-9.799-20.557-13.703c-11.414-5.741-24.475-10.782-41.896-10.015         c-11.186,0.492-19.902,3.614-27.144,8.963c-7.553,5.576-15.096,15.501-13.7,28.722c1.295,12.329,8.871,20.534,18.18,25.824         c7.158,7.075,14.81,14.361,24.509,19.236c3.158,1.589,9.527,4.389,10.804,3.166c0.785-0.757,0.392-2.282-0.012-2.876         c1.174,0.464,3.124,0.458,3.438-0.29c0.321-0.759-0.049-1.846-0.633-2.684c1.005,0.017,2.268-0.364,2.478-1.268         c0.463-2.01-6.478-7.522-9.752-11.068c-3.384-3.665-6.491-7.535-9.75-11.33c-0.049-0.213-0.265-0.264-0.264-0.531         c6.654,2.375,16.039,4.075,24.772,3.695c3.914-0.176,8.313-0.224,11.858-1.322c1.069-0.332,1.858-1.248,2.9-1.318         c1.894-0.125,4.644,1.08,7.112,1.582c8.592,1.753,19.01,1.258,29.253,0.792C333.581,228.823,343.939,228.971,352.027,225.6"/>
							<path style="fill-rule:evenodd;clip-rule:evenodd;fill:#C6360A;" d="M352.27,225.034         c-17.366,2.415-42.793,3.267-59.008-0.749c-0.819-0.312,0.616-0.871,1.846-2.375c-12.784,5.271-35.58,4.664-48.227-0.263         c-1.327-9.035-7.544-16.11-14.197-18.833c5.314,4.852,9.674,8.714,11.584,16.483c0.308,1.252,0.639,3.702,1.296,4.989         c1.968,3.859,14.413,5.269,20.291,5.532c8.52,0.387,16.26-0.134,21.871-2.9c14.807,6.028,54.597,1.374,57.449,1.055         C347.73,227.687,352.27,226.855,352.27,225.034"/>
							<path style="fill-rule:evenodd;clip-rule:evenodd;fill:#C6360A;" d="M315.927,212.688c3.416,1.117,13.129,1.488,20.289,1.844         c5.133,0.256,10.635,0.066,14.494,1.318c1.008,0.327,2.192,0.786,2.636,1.318c0,0,1.008-0.052,1.581-0.263         c-0.432-1.846-2.884-2.545-4.745-2.9c-7.202-1.368-16.934-0.665-25.824-1.053         C321.316,212.82,315.478,212.749,315.927,212.688"/>
						</g>
						<g>
							<path style="fill-rule:evenodd;clip-rule:evenodd;fill:#C6360A;" d="M210.515,195.295c0.049-0.225-0.1-0.248-0.261-0.263         c-0.226-0.049-0.25,0.104-0.266,0.263c-5.197,3.52-8.829,7.973-10.803,13.44c-3.573,9.893,1.091,21.772,6.06,27.406         c3.843,4.358,10.964,8.375,18.448,8.432c4.748,0.036,9.326-1.36,13.174-2.9c5.635-2.254,10.184-6.041,18.187-6.059         c2.794-0.006,5.602,0.463,7.903,1.053c3.505,0.903,6.163,3.031,8.962,3.426c3.259,0.465,6.372-0.464,7.112-2.107         c1.597-3.533-1.116-7.148-2.371-8.696c-3.844-4.758-10.495-8.381-18.974-8.433c-6.227-0.037-11.804,1.732-17.126,3.428         c-6.955,2.21-16.993,5.746-23.193,1.58c-1.86-1.249-5.192-6.059-6.326-8.697c-2.165-5.058-2.908-11.848-1.582-18.184         C209.754,197.591,209.596,196.149,210.515,195.295"/>
							<path style="fill-rule:evenodd;clip-rule:evenodd;fill:#F2793D;" d="M240.984,170.914         c-17.497,3.265-34.896,16.579-32.575,37.557c0.788,7.12,3.956,13.52,8.962,17.39c-3.067-5.595-5.997-10.732-5.272-20.817         C213.363,187.44,227.881,176.274,240.984,170.914"/>
						</g>
					</g>
					<g>
						<path style="fill-rule:evenodd;clip-rule:evenodd;fill:#FFFFFF;" d="M238.022,180.772c-0.757,1.059-3.186,1.508-4.4,1.277        c-0.453-0.085-0.657-0.736-0.565-1.044c0.246-0.79,3.326-1.64,4.056-1.331C237.566,179.863,237.88,180.434,238.022,180.772z"/>
						<path style="fill-rule:evenodd;clip-rule:evenodd;fill:#FFFFFF;" d="M228.667,177.573c-0.229-1.782,5.454-1.638,5.573-1.154        c0.236,0.978-2.372,1.285-3.57,1.59C229.912,178.201,228.803,178.61,228.667,177.573z"/>
						<path style="fill-rule:evenodd;clip-rule:evenodd;fill:#FFFFFF;" d="M245.732,173.926c0.195,1.121-0.136,1.25-1.112,1.394        c-1.704,0.45-4.506,1.277-6.405,1.087c-0.352-0.035-0.633-0.714-0.616-0.943c0.086-1.198,3.019-1.747,3.868-1.928        c0.738-0.156,1.57-0.253,2.266-0.294C244.463,173.198,245.378,173.023,245.732,173.926z"/>
					</g>
				</g>
				<g>
					<g>
						<path style="fill-rule:evenodd;clip-rule:evenodd;fill:#EFAC8B;" d="M254.973,261.583c-0.571,1.634-3.51,6.725-4.01,9.519        c-0.195,1.084-0.104,2.42,0.8,2.799c1.9,0.804,3.853-3.425,4.739-4.802c1.53-2.389,2.745-3.955,3.99-6.031        c-0.4,1.962-3.281,6.879-4.07,10.281c-0.333,1.414-0.447,3.112,0.735,3.548c1.505,0.559,3.503-2.729,4.212-3.814        c3.405-5.217,7.248-11.013,10.786-14.606c4.066-4.124,8.138-7.142,13.208-9.706c1.226-0.62,4.107-1.432,4.611-2.707        c0.235-0.6-0.151-2.261-0.394-2.857c-0.823-2.042-2.514-4.107-4.503-6.772c-0.76-1.023-1.466-2.067-2.6-3.216        c-0.914-0.935-2.303-2.692-2.894-2.927c-0.922-0.372-3.199,0.347-4.54,0.791c-3.925,1.292-9.271,3.545-12.48,4.701        c-2.782,1.008-5.706,2.059-8.394,2.986c-2.553,0.873-10.937,3.702-10.208,7.107c0.601,2.806,8.393-0.9,10.638-0.94        c-2.933,2.525-7.016,7.35-9.905,13.156c-0.76,1.524-2.514,4.646-1.312,5.581c1.641,1.279,3.131-1.157,4.025-2.131        c1.249-1.358,2.303-2.238,3.164-3.592c-0.671,2.276-3.427,6.786-3.837,9.583c-0.131,0.909,0.051,2.063,0.744,2.387        c1.6,0.749,2.771-1.816,3.859-3.351c1.483-2.094,2.587-3.348,3.578-4.813C254.932,261.703,254.954,261.643,254.973,261.583z"/>
						<path style="fill-rule:evenodd;clip-rule:evenodd;fill:#A2A2DB;" d="M337.573,196.775        c-20.768,10.377-42.732,19.557-62.504,30.928c3.508,7.781,7.044,15.529,10.42,23.436c19.824-3.339,37.104-6.924,53.06-14.647        c7.468-3.615,14.155-7.438,21.81-12.045c10.135-6.098,21.684-9.816,20.183-27.019c-1.065-12.215-8.654-26.517-13.671-36.135        c-5.813-11.137-11.589-19.866-19.208-30.599c-6.824-9.618-13.885-18.767-22.461-27.344        c-8.445-8.445-18.131-16.284-30.925-18.555c-11.614-2.065-19.769,4.871-18.555,17.903c0.89,9.568,6.961,19.559,11.719,27.344        C301.73,153.424,322.628,176.32,337.573,196.775z"/>
					</g>
					<g>
						<path style="fill-rule:evenodd;clip-rule:evenodd;fill:#FFFFFF;" d="M350.56,217.747c0.837,2.08,4.296,0.09,6.761-1.396        c2.441-1.475,4.865-3.305,4.273-4.581c-0.934-2.016-4.244,0.18-6.216,1.282C353.731,213.971,349.679,215.563,350.56,217.747z"/>
						<path style="fill-rule:evenodd;clip-rule:evenodd;fill:#FFFFFF;" d="M365.859,215.383c1.066,2.517,7.149-2.036,5.989-3.859        C370.654,209.642,365.033,213.441,365.859,215.383z"/>
						<path style="fill-rule:evenodd;clip-rule:evenodd;fill:#FFFFFF;" d="M366.839,208.28c1.788,0.758,5.321-1.195,7.221-3.315        c0.676-0.754,1.243-1.739,0.52-2.577c-1.113-1.285-3.34,0.673-5.129,1.799C367.6,205.351,365.248,206.211,366.839,208.28z"/>
					</g>
				</g>
				<g>
					<g>
						<path style="fill:#EFAC8B;" d="M274.775,89.067c0,0-18.643,13.873-32.497,0V68.471h32.497V89.067z"/>
						<path style="fill:#EFAC8B;" d="M277.154,52.732c-0.007-0.071,2.754-11.187,9.162-15.513        c-1.902-10.196-6.185-27.263-14.088-31.677c-11.632-6.497-28.949-2.608-36.634,5.451C228.998,17.912,223.18,33.121,223,48.164        c-0.171,15.221,6.053,27.761,24.051,21.875c1.847,4.161,2.262,9.764,3.821,14.217c-0.013,0.005-0.031,0.014-0.04,0.019        c8.66,10.499,27.204,0.947,32.786-2.302c-1.884-3.402-1.575-4.237-2.452-7.626C280.335,71.138,277.34,56.568,277.154,52.732z"/>
						<g>
							<g>
								<g>
									<path style="fill-rule:evenodd;clip-rule:evenodd;fill:#FFFFFF;" d="M251.54,38.968           c-5.008-6.082-10.327-1.934-10.327-1.934s1.223,2.21,4.811,3.044C248.688,40.703,251.54,38.968,251.54,38.968"/>
									<path style="fill-rule:evenodd;clip-rule:evenodd;fill:#525E0A;" d="M241.212,37.034c0,0,2.574-2.027,5.883-1.161           c0.082,0.264,0.279,0.805,0.275,1.096c-0.025,1.323-1.042,2.422-2.418,2.795C242.193,38.791,241.212,37.034,241.212,37.034           "/>
								</g>
								<path style="fill:#4F2F12;" d="M241.169,33.495c2.024-0.883,7.692-1.508,11.362,2.409l1.279-1.192          c-3.964-4.229-10.188-4.199-13.341-2.817L241.169,33.495z"/>
							</g>
							<g>
								<g>
									<path style="fill-rule:evenodd;clip-rule:evenodd;fill:#FFFFFF;" d="M232.848,36.688c-4.639-5.624-9.583-1.79-9.583-1.79           s1.137,2.045,4.47,2.83C230.206,38.31,232.848,36.688,232.848,36.688"/>
									<path style="fill-rule:evenodd;clip-rule:evenodd;fill:#525E0A;" d="M223.264,34.898c0,0,2.394-1.875,5.461-1.08           c0.08,0.251,0.26,0.751,0.256,1.023c-0.022,1.225-0.965,2.248-2.247,2.591C224.18,36.526,223.264,34.898,223.264,34.898"/>
								</g>
								<path style="fill:#4F2F12;" d="M223.254,31.679c1.86-0.822,7.094-1.399,10.476,2.222l1.273-1.205          c-3.703-3.944-9.509-3.901-12.451-2.624L223.254,31.679z"/>
							</g>
							<g>
								<path style="fill-rule:evenodd;clip-rule:evenodd;fill:#E59F89;" d="M247.052,70.039c5.572-1.476,12.002-8.432,12.002-8.432          s0.641,11.156-9.422,18.054L247.052,70.039z"/>
								<g>
									<g>
										<path style="fill-rule:evenodd;clip-rule:evenodd;fill:#DB8C6A;" d="M236.086,36.548c-1.011-0.333-4.98,8.887-4.86,9.93            c0.167,1.313,4.535,2.52,4.929,2.048C237.287,47.184,237.604,37.046,236.086,36.548"/>
										<path style="fill:#DB8C6A;" d="M228.184,54.665c4.781,3.213,10.412,0.893,13.623-2.611L240.32,50.7            c-2.643,2.893-7.22,4.843-11.018,2.303L228.184,54.665z"/>
									</g>
									<path style="fill:#DB8C6A;" d="M244.215,45.218c-1.438,2.023-0.956,4.832,1.066,6.272c2.027,1.427,4.832,0.955,6.265-1.075           c1.438-2.025,0.96-4.837-1.069-6.268C248.453,42.715,245.652,43.189,244.215,45.218"/>
									<path style="fill:#DB8C6A;" d="M226.936,46.849c-0.93,1.311-2.431,1.959-3.929,1.877c0-0.189-0.012-0.372-0.007-0.562           c0.036-2.8,0.262-5.621,0.655-8.37c0.766,0.061,1.537,0.309,2.207,0.784C227.888,42.017,228.368,44.822,226.936,46.849z"/>
								</g>
							</g>
						</g>
					</g>
					<path style="fill:#4F2F12;" d="M334.04,122.15c-3.132-15.507-18.89-24.594-24.154-37.62c-2.542-6.291-2.06-12.069-2.229-18.346       c-0.006-0.074-0.006-0.156-0.011-0.237c-0.007-0.31-0.025-0.629-0.037-0.949c-0.319-6.963-3.008-12.572-6.474-17.324       c-3.174-4.343-7.64-7.697-9.392-12.576c-1.567-4.404-0.027-8.034-0.187-11.399c-0.902-20.098-18.398-26.31-36.787-22.751       c-4.694,0.906-10.648,2.399-14.574,4.333c-5.794,2.861-10.679,7.708-14.286,12.538c-3.758,5.018-6.511,11.35-7.142,18.233       c-10.73,7.526-16.394,20.146-13.1,37.711l24.266-2.268c-13.384-15.387-4.024-53.676,4.23-55.581       c4.6,5.86,11.361,8.871,20.798,8.407c-0.218,5.773-0.256,11.69,0.274,18.037l3.754,0.3c-0.002-5.5,1.256-12.468,6.766-13.133       c3.139-0.374,6.513,1.797,7.096,5.441c0.839,5.142-3.354,8.77-7.227,11.593c-4.148,3.012-8.48,5.629-11.371,8.423       c-6.211,6.007-8.692,12.007-9.181,19.686l0,0c-0.001,0.014-0.001,0.026-0.001,0.042c-0.975,8.469,1.04,14.065,2.046,17.085       c3.555,10.715,10.796,14.859,15.42,23.143c1.317,2.379,2.596,5.719,2.63,8.774c0.063,5.402-2.371,10.108-3.757,14.701       c-1.746,5.811-1.844,10.873-0.999,15.33l73.871-19.281C334.573,130.087,334.766,125.804,334.04,122.15z"/>
				</g>
				<g>
					<g>
						<g>
							<path style="fill-rule:evenodd;clip-rule:evenodd;fill:#F2793D;" d="M318.866,178.541         c-5.677-0.892-12.431-1.884-18.974-1.055c-2.216-2.427-3.419-5.989-5.534-7.641c-3.273-2.554-6.069,10.197-6.852,12.649         c-0.408,1.274-1.357,2.742-1.901,4.421c-4.544,14,9.012,24.382,21.664,25.358c12.555,0.967,23.634-6.345,23.72-17.657         c0.009-1.487-0.284-5.494-0.851-8.495c-0.679-3.608-0.396-14.017-3.102-15.221         C324.316,169.689,320.219,177.373,318.866,178.541"/>
							<path style="fill-rule:evenodd;clip-rule:evenodd;fill:#C6360A;" d="M296.393,205.674         c-5.888-3.904-11.483-12.581-9.087-22.681c-1.17,1.634-2.42,4.406-2.699,6.878c-0.131,1.181-0.102,2.598,0,3.692         c1.247,13.115,17.435,21.638,31.864,17.893C316.471,211.456,306.169,212.155,296.393,205.674"/>
						</g>
						<g>
							<g>
								<g>
									<path style="fill-rule:evenodd;clip-rule:evenodd;fill:#63391C;" d="M308.361,195.586l1.48,0.005h1.624l1.47,0.002           c0.833,0,0.933,0.486,0.409,1.061c-0.536,0.579-1.149,1.253-1.457,1.58c-0.2,0.21-0.385,0.34-0.571,0.444           c-0.05,0.033-0.1,0.057-0.161,0.082c-0.056,0.025-0.11,0.049-0.161,0.068c-0.072,0.028-0.147,0.028-0.226,0.042           c-0.037,0-0.082,0.013-0.119,0.013c-0.041-0.002-0.084-0.013-0.122-0.016c-0.08-0.01-0.158-0.017-0.218-0.04           c-0.057-0.017-0.117-0.042-0.167-0.069c-0.057-0.023-0.114-0.049-0.159-0.08c-0.188-0.106-0.376-0.238-0.569-0.446           c-0.313-0.328-0.924-1-1.461-1.581C307.434,196.077,307.53,195.59,308.361,195.586"/>
									<path style="fill:#63391C;" d="M310.718,201.967c0.451-0.002,0.83-0.371,0.83-0.828l0.001-3.287           c-0.001-0.46-0.378-0.829-0.831-0.829c-0.458,0-0.831,0.371-0.831,0.827l-0.002,3.289           C309.886,201.596,310.255,201.965,310.718,201.967"/>
									<path style="fill:#63391C;" d="M311.633,202.617c0.609,0.004,1.194-0.088,1.729-0.277c0.399-0.133,0.608-0.572,0.472-0.977           c-0.144-0.4-0.582-0.611-0.979-0.472c-1.051,0.368-2.477,0.196-3.573-0.42c-0.691-0.391-1.577-1.142-1.858-2.503           c-0.093-0.415-0.501-0.684-0.911-0.592c-0.414,0.086-0.685,0.49-0.602,0.908c0.318,1.502,1.242,2.751,2.619,3.527           C309.465,202.338,310.57,202.619,311.633,202.617"/>
								</g>
							</g>
							<g>
								<path style="fill:#63391C;" d="M298.253,186.299c-0.272-0.026-0.528-0.159-0.707-0.388c-0.343-0.44-0.257-1.078,0.189-1.419          c1.107-0.852,2.34-1.509,3.665-1.954c0.535-0.183,1.113,0.105,1.292,0.634c0.177,0.523-0.115,1.103-0.649,1.283          c-1.104,0.373-2.142,0.922-3.069,1.636C298.764,186.254,298.496,186.322,298.253,186.299"/>
								<path style="fill-rule:evenodd;clip-rule:evenodd;fill:#C6360A;" d="M304.109,195.346c0.456-0.151,2.005-0.648,1.471-2.338          c-0.402-1.274-1.998-1.431-3.385-1.533c-1.803-0.137-6.045-0.127-4.61,2.775          C298.112,195.326,302.296,195.958,304.109,195.346z"/>
								<path style="fill-rule:evenodd;clip-rule:evenodd;fill:#63391C;" d="M304.055,188.993c-0.111-1.337-0.852-2.367-1.65-2.299          c-0.801,0.069-1.354,1.207-1.237,2.542c0.109,1.341,0.848,2.372,1.646,2.303          C303.613,191.472,304.168,190.333,304.055,188.993z"/>
							</g>
							<g>
								<path style="fill:#63391C;" d="M322.445,187.816c-0.24-0.025-0.477-0.132-0.643-0.32c-0.572-0.608-1.217-1.152-1.929-1.611          c-0.465-0.309-0.591-0.938-0.284-1.407c0.314-0.467,0.947-0.596,1.417-0.293c0.847,0.554,1.617,1.2,2.298,1.929          c0.377,0.41,0.35,1.05-0.064,1.431C323.018,187.75,322.718,187.838,322.445,187.816"/>
								<path style="fill-rule:evenodd;clip-rule:evenodd;fill:#C6360A;" d="M321.98,195.468c0.451-0.152,2.003-0.654,1.474-2.343          c-0.4-1.269-1.998-1.427-3.384-1.53c-1.808-0.138-6.046-0.129-4.615,2.776C315.984,195.442,320.165,196.077,321.98,195.468z          "/>
								<path style="fill-rule:evenodd;clip-rule:evenodd;fill:#63391C;" d="M319.895,189.092c-0.12-1.337-0.858-2.367-1.656-2.3          c-0.8,0.068-1.355,1.207-1.241,2.545c0.109,1.341,0.85,2.371,1.649,2.302C319.447,191.571,320.004,190.429,319.895,189.092z          "/>
							</g>
						</g>
					</g>
					<g>
						<g>
							<g>
								<path style="fill-rule:evenodd;clip-rule:evenodd;fill:#ED500A;" d="M254.823,237.363c0.643-0.094,1.254-0.272,1.841-0.489          c0.255,0.283,0.502,0.569,0.76,0.848c3.274,3.546,10.214,9.058,9.752,11.068c-0.21,0.904-1.473,1.285-2.478,1.268          c0.584,0.837,0.954,1.924,0.633,2.684c-0.314,0.748-2.264,0.754-3.438,0.29c0.404,0.595,0.797,2.12,0.012,2.876          c-1.277,1.223-7.646-1.577-10.804-3.166c-4.904-2.465-9.276-5.553-13.333-8.913          C242.428,239.962,247.925,238.377,254.823,237.363z"/>
							</g>
						</g>
					</g>
				</g>
			</g>
		</g>
		<g>
			<path style="fill-rule:evenodd;clip-rule:evenodd;fill:#754E27;" d="M263.696,57.744c-1.858-1.181-3.479,2.384-4.596,4.977     c-1.107,2.574-1.993,5.415-0.792,6.097c1.897,1.074,3.282-2.569,4.23-4.576C263.323,62.568,265.644,58.984,263.696,57.744z"/>
			<path style="fill-rule:evenodd;clip-rule:evenodd;fill:#754E27;" d="M252.839,68.37c-2.287-1.395-4.537,5.713-2.571,6.504     C252.295,75.694,254.609,69.45,252.839,68.37z"/>
			<path style="fill-rule:evenodd;clip-rule:evenodd;fill:#754E27;" d="M256.117,74.598c-1.858,0.418-3.563,3.997-3.869,6.773     c-0.104,0.985,0.007,2.097,1.06,2.35c1.625,0.389,2.281-2.446,3.063-4.364C257.184,77.371,258.568,75.339,256.117,74.598z"/>
		</g>
	</g>
</g>















</svg>
